<svg xmlns="http://www.w3.org/2000/svg" xmlns:xlink="http://www.w3.org/1999/xlink" width="212.622" height="70.866"><circle fill="#BFA388" cx="36.868" cy="35.514" r="27.577"/><g opacity=".07"><defs><circle id="a" opacity=".07" cx="36.85" cy="35.718" r="27.019"/></defs><clipPath id="b"><use xlink:href="#a" overflow="visible"/></clipPath><g clip-path="url(#b)"><path fill="#7D6A59" d="M-5.308 32.466l44.397 44.397-.232.231-44.396-44.397zm.555-.614L39.644 76.25l-.232.231-44.396-44.397zm.555-.614L40.2 75.635l-.231.231L-4.43 31.469zm.556-.613L40.755 75.02l-.232.232-44.396-44.397zm.555-.615L41.31 74.408l-.231.231-44.397-44.396zm.555-.613l44.396 44.397-.23.231-44.398-44.397zm.555-.614L42.42 73.18l-.232.231-44.396-44.397zm.555-.613l44.397 44.396-.231.231L-1.653 28.4zm.555-.615L43.53 71.952l-.231.231-44.397-44.397zm.557-.613l44.396 44.396-.231.232L-.542 27.173zm.554-.614L44.64 70.725l-.23.231L.011 26.56zm.555-.614l44.397 44.397-.232.231L.568 25.945zm.555-.614l44.397 44.397-.232.231L1.123 25.331zm.556-.614l44.396 44.397-.231.231L1.678 24.717zm.554-.614l44.397 44.397-.231.231L2.233 24.103zm.556-.612l44.396 44.396-.23.231L2.787 23.491zm.555-.615l44.397 44.397-.232.231L3.344 22.876zm.555-.614l44.397 44.397-.232.231L3.9 22.262zm.555-.614l44.397 44.397-.231.231L4.454 21.648zm.555-.614L49.637 65.2l-.231.23L5.009 21.035zm.556-.613l44.396 44.397-.231.231L5.564 20.422zm.554-.614l44.397 44.397-.23.231L6.12 19.808zm.556-.614L51.303 63.36l-.232.231L6.675 19.193zm.555-.614l44.397 44.397-.231.231L7.23 18.58zm.555-.613L52.412 62.13l-.23.232L7.783 17.966zm.555-.614l44.397 44.397-.231.231L8.34 17.353zm.556-.614l44.396 44.397-.23.231L8.895 16.74zm.555-.614L54.079 60.29l-.232.231L9.451 16.125zm.555-.613l44.397 44.396-.231.231L10.006 15.51zm.555-.615L55.19 59.062l-.231.231L10.56 14.896zm.555-.613l44.396 44.396-.23.232-44.398-44.397zm.556-.614l44.396 44.397-.23.231L11.67 13.67zm.555-.614l44.397 44.397-.232.231-44.396-44.396zm.555-.614L57.41 56.607l-.231.231-44.397-44.396zm.555-.613l44.396 44.397-.231.23-44.397-44.396zm.555-.614L58.519 55.38l-.23.23L13.89 11.215zm.556-.613l44.396 44.396-.23.231-44.398-44.396zm.555-.615L59.63 54.152l-.23.231L15.001 9.987zm.555-.614l44.397 44.397-.232.231L15.558 9.373zm.554-.613L60.74 52.925l-.231.231L16.112 8.759zm.556-.614L61.295 52.31l-.23.23L16.666 8.146zm.555-.614L61.85 51.697l-.232.23L17.223 7.532zm.556-.613l44.396 44.396-.23.231L17.777 6.918zm.555-.615L62.962 50.47l-.232.231L18.334 6.304zm.555-.612l44.396 44.396-.231.231L18.888 5.69zm.555-.615L64.07 49.242l-.231.231L19.443 5.076zm.555-.615l44.397 44.398-.232.23L20 4.463zm.556-.612l44.396 44.396-.23.232L20.553 3.849zm.554-.614L65.739 47.4l-.232.231L21.11 3.235zm.555-.614l44.397 44.397-.231.231L21.664 2.621zm.555-.614l44.397 44.397-.231.231L22.219 2.007zm.556-.614l44.396 44.397-.23.23L22.773 1.394zm.554-.614l44.398 44.397-.232.23L23.33.78zm.557-.613L68.514 44.33l-.232.232L23.886.166zm.554-.614l44.397 44.397-.231.231L24.44-.448zm.556-.614l44.396 44.397-.231.231L24.995-1.062zm.555-.614L70.178 42.49l-.23.231L25.55-1.676zm.555-.614l44.396 44.397-.23.23L26.105-2.29zm.556-.613l44.396 44.396-.23.232L26.66-2.903zm.554-.614L71.844 40.65l-.231.231L27.216-3.516zm.556-.614l44.396 44.397-.231.231L27.771-4.13zm.555-.614l44.396 44.397-.23.231L28.325-4.745zm.555-.614L73.51 38.807l-.232.231L28.882-5.359zm.556-.613l44.396 44.396-.23.232L29.436-5.972zm.554-.614L74.62 37.58l-.231.231L29.992-6.585zm.555-.613l44.397 44.396-.231.231L30.547-7.199zm.556-.615L75.73 36.352l-.23.231L31.101-7.814zm.555-.614l44.396 44.397-.23.231L31.657-8.428z"/></g></g><path fill="#D9D9DA" d="M30.583 37.862l-2.048 3.544 7.82 21.997 2.039-.205-.658-21.84zm10.035 25.114l-2.224.222-.658-21.84 6.744-3.423 1.863 2.437z"/><path fill="#F3DCD0" d="M44.286 26.858s1.068-.479 1.252.974c.184 1.453.294 2.987-1.18 3.032-1.474.045-.072-4.006-.072-4.006zm-14.112.933s-1.125-.324-1.103 1.14c.022 1.464.129 2.998 1.595 2.836 1.466-.163-.492-3.976-.492-3.976z"/><path fill="#F3DCD0" d="M37.058 20.845l.72 19.944s-4.445-.154-6.905-2.695c-.495-3.279-1.065-14.565-1.065-14.565s1.622-2.188 7.25-2.684z"/><path fill="#F3DCD0" d="M36.909 20.851l.719 19.944s4.661-.719 6.936-3.427c-.019-2.133.021-7.077.02-10.613 0-2.083-.043-3.569-.043-3.569-2.704-2.056-5.395-2.48-7.632-2.335z"/><path fill="#633626" d="M39.414 27.245s-.484-.028-.486-.465c-.002-.437 1.683-.855 2.717-.501s2.223 1.421 1.872 1.456c-.35.035-1.274-.574-2.115-.766-.472-.107-1.875.26-1.988.276zm-3.916-.091s.479-.071.443-.506c-.037-.435-1.752-.702-2.751-.257-.998.445-2.088 1.613-1.736 1.617.352.004 1.218-.685 2.039-.951.461-.15 1.891.09 2.005.097z"/><path fill="#FFF" d="M39.903 27.91s1.074-.654 2.045-.142c-.198.519-.361.91-.902.964-.54.053-1.165-.169-1.143-.822z"/><path fill="#6A9363" d="M40.197 27.767s.755-.35 1.492-.109c-.145.38-.269.73-.665.769-.395.04-.843-.182-.827-.66z"/><path fill="#29160D" d="M40.471 27.671s.35-.164.911-.081c-.091.24-.145.506-.394.531-.25.024-.527-.149-.517-.45z"/><path fill="#FFF" d="M35.382 28.101s-1.382-.842-2.633-.183c.255.668.465 1.171 1.161 1.241.696.07 1.5-.216 1.472-1.058z"/><path fill="#6A9363" d="M35.003 27.918s-.972-.45-1.921-.141c.186.489.347.94.856.99.509.052 1.086-.234 1.065-.849z"/><path fill="#29160D" d="M34.651 27.794s-.45-.211-1.173-.104c.117.308.187.651.508.683.321.032.678-.191.665-.579z"/><path fill="#B99B96" d="M40.971 24.391a.06.06 0 0 1-.029-.007c-3.551-1.859-7.281-.111-7.318-.093a.062.062 0 1 1-.054-.112c.038-.018 3.824-1.792 7.429.095.03.016.042.054.026.084a.059.059 0 0 1-.054.033z"/><path fill="#B99B96" d="M35.171 24.712a.062.062 0 0 1-.026-.119c1.074-.486 2.485-.55 3.68-.168a.062.062 0 0 1-.038.118c-1.168-.374-2.543-.312-3.591.162a.047.047 0 0 1-.025.007z"/><path fill="#F0EFEF" d="M31.066 38.417l.293 1.895 3.538 1.986 2.863.201 3.796-.415 2.599-1.934.098-1.977z"/><path fill="#432B2B" d="M44.584 25.748l-1.059 8.16-2.179 1.957-2.985-1.008-.075-1.473-.79.127v7.847l3.073-.401 2.261-1.141 1.73-1.972z"/><path fill="#FFF" d="M31.326 40.099l.606 1.337 2.188 4.4.777-3.538zm12.853-.239l-.265 2.025-1.786 3.689-.572-3.49z"/><path fill="#5A332F" d="M38.163 45.946l-1.295-.163-1.971-3.485 3.087.201z"/><path fill="#5A332F" d="M37.939 45.722l1.257-.063 2.36-3.575-3.796.415.179 3.223"/><path fill="#5A332F" d="M35.723 52.428l2.418 3.891.022-10.821-1.295.285z"/><path fill="#5A332F" d="M38.141 56.319l2.197-3.891-1.142-6.769-1.257-.161z"/><path fill="#F1F1F2" d="M28.535 41.406l9.651 14.904-.036 6.372-2.734.097z"/><path fill="#FFF" d="M38.186 56.31l8.157-15.938-5.725 22.604-2.468-.002z"/><path fill="#7A8048" d="M61.44 47.993l-15.097-7.621-5.725 22.604s15.304-2.931 20.822-14.983zm-32.905-6.587l-14.643 8.332s8.245 12.847 21.818 13.14c-4.849-13.639-7.175-21.472-7.175-21.472z"/><path fill="#432B2B" d="M30.023 27.262l1.48 7.013 2.95 1.559 2.262-.927-.014-1.475.839.078.119 7.841-2.71-.27-2.391-.952-1.975-2.267z"/><path fill="#C1B39A" d="M41.224 15.767s1.753.445 2.988 1.937a81.129 81.129 0 0 0-2.392 3.992s-1.139-.492-3.165-.797c-.412-2.758 1.78-5.289 2.569-5.132z"/><path fill="#432B2B" d="M40.388 21.238c.381.091.742.215 1.068.324.074-.867.477-3.012 2.488-4.134a8.701 8.701 0 0 0-.505-.461 6.944 6.944 0 0 0-.294-.232c-2.411 1.074-2.727 3.671-2.757 4.503z"/><path fill="#432B2B" d="M41.695 15.927c-2.604 1.395-2.706 4.212-2.67 5.06.355.048.69.106 1.01.173.049-.945.411-3.498 2.759-4.67a5.955 5.955 0 0 0-1.099-.563zm2.517 1.778c-2.029 1.073-2.348 3.264-2.392 3.992 1.74.646 2.722 1.489 2.722 1.489s.051 1.566.043 3.569c1.738-2.508 2.303-6.166-.373-9.05z"/><path fill="#432B2B" d="M41.224 15.767c-3.04-.884-6.247.882-7.681 2.524-2.435-.63-5.536 1.636-5.462 4.874.075 3.238 2.037 4.95 2.037 4.95s-.192-3.391-.311-4.585c1.435-1.339 4.37-2.376 7.059-2.581.555-.042 1.296-.103 1.788-.049-.026-.95.131-3.634 2.57-5.133z"/><circle opacity=".4" fill="#D0D2D3" cx="33.999" cy="29.608" r="2.074"/><path fill="#424442" d="M36.233 29.376a2.28 2.28 0 0 0-2.493-2.039 2.271 2.271 0 0 0-2.036 2.026l-.497.031a.54.54 0 0 0-.505.57l-.14 8.016.352.262.161-8.3a.169.169 0 0 1 .156-.176l.466-.029c.002.031.002.062.005.093a2.28 2.28 0 0 0 2.493 2.039 2.281 2.281 0 0 0 2.038-2.493zm-2.076 2.121a1.907 1.907 0 0 1-2.089-2.037 1.9 1.9 0 0 1 1.71-1.752 1.907 1.907 0 0 1 2.085 1.705 1.906 1.906 0 0 1-1.706 2.084z"/><path opacity=".71" fill="#A6A6A6" d="M34.219 31.53a.5.5 0 0 1 0-1 .723.723 0 0 0 .722-.721.5.5 0 0 1 1 0 1.724 1.724 0 0 1-1.722 1.721z"/><path fill="#B99B96" d="M37.496 33.636l-.012-.001-1.529-.152a.125.125 0 0 1-.112-.13l.086-1.631a.126.126 0 0 1 .131-.118.125.125 0 0 1 .118.131l-.08 1.513 1.389.138 1.366-.339-.226-1.381a.125.125 0 0 1 .103-.143.125.125 0 0 1 .143.103l.245 1.495a.125.125 0 0 1-.093.141l-1.498.372-.031.002z"/><path fill="#5B6522" d="M36.801 63.943a28.43 28.43 0 0 1-19.037-7.32 28.43 28.43 0 0 1-9.291-18.345c-.759-7.576 1.478-14.993 6.299-20.886 4.82-5.893 11.647-9.556 19.222-10.315a28.43 28.43 0 0 1 21.91 7.176 28.43 28.43 0 0 1 9.291 18.344c.758 7.576-1.478 14.993-6.299 20.886-4.82 5.893-11.647 9.556-19.222 10.315-.954.097-1.92.145-2.873.145zm.066-54.849c-.881 0-1.776.045-2.658.133-7.001.701-13.311 4.087-17.766 9.533-4.455 5.446-6.522 12.302-5.821 19.303 1.354 13.523 12.608 23.72 26.179 23.72.881 0 1.775-.045 2.658-.133 14.453-1.447 25.034-14.383 23.587-28.836-1.355-13.522-12.609-23.72-26.179-23.72z"/><g fill="#7A8048"><path d="M109.765 48.335c0 .152-.152.304-.379.304h-4.361c-.076 0-.266-.038-.303-.114l-12.209-17.55v17.361c0 .152-.152.304-.379.304h-4.36c-.19 0-.341-.152-.341-.304V22.295c0-.152.151-.305.341-.305h4.398c.076 0 .266.038.303.114l12.247 17.551v-17.36c0-.152.152-.305.379-.305h4.285c.227 0 .379.152.379.305v26.04zm10.704-21.497v6.011h10.429c.19 0 .341.152.341.304v4.223c0 .152-.152.304-.341.304h-10.429v6.012h12.59c.228 0 .38.152.38.304v4.338c0 .152-.152.304-.38.304h-17.293c-.227 0-.379-.152-.379-.304V22.31c0-.152.152-.304.379-.304h16.951c.227 0 .379.152.379.304v4.224c0 .152-.152.304-.379.304h-12.248zm38.983-.573c0 .152-.152.304-.38.304h-8.028v21.766c0 .152-.152.304-.38.304h-4.3c-.228 0-.38-.152-.38-.304V26.57h-8.029c-.228 0-.38-.152-.38-.304v-3.957c0-.152.152-.304.38-.304h21.118c.228 0 .38.152.38.304v3.956zm12.567.304v17.505h2.663c.229 0 .381.152.381.304v3.958c0 .152-.152.304-.381.304h-10.465c-.228 0-.38-.152-.38-.304v-3.958c0-.152.152-.304.38-.304h2.702V26.569h-2.549c-.229 0-.381-.152-.381-.304v-3.957c0-.152.152-.305.381-.305h10.16c.229 0 .381.152.381.305v3.957c0 .152-.152.304-.381.304h-2.511z"/><path d="M174.531 44.073c.229 0 .381.152.381.304v3.957c0 .152-.152.305-.381.305h-10.16c-.229 0-.381-.152-.381-.305v-3.957c0-.152.152-.304.381-.304h2.549V26.569h-2.702c-.228 0-.38-.152-.38-.304v-3.958c0-.152.152-.304.38-.304h10.465c.229 0 .381.152.381.304v3.958c0 .152-.152.304-.381.304h-2.663v17.505h2.511zm14.102-8.74c-3.063-4.22-6.126-8.592-9.189-12.812-.191-.228-.038-.494.268-.494h5.36c.077 0 .268.038.306.114l6.394 8.858 6.355-8.858c.038-.076.23-.114.306-.114h5.36c.345 0 .498.266.306.494l-9.227 12.812c3.101 4.22 6.164 8.592 9.227 12.812.191.228.039.494-.306.494h-5.36c-.076 0-.268-.038-.306-.114l-6.355-8.858-6.394 8.858c-.038.076-.229.114-.306.114h-5.36c-.307 0-.46-.266-.268-.494l9.189-12.812z"/></g><path d="M89.436 53.72c.71 0 1.285.322 1.597.871l-.71.35c-.199-.328-.484-.506-.855-.506-.559 0-1 .425-1 1.232 0 .806.441 1.231 1 1.231.371 0 .656-.177.855-.505l.71.35c-.312.548-.887.871-1.597.871-1.097 0-1.833-.769-1.833-1.946-.001-1.179.736-1.948 1.833-1.948zm4.014.769h-1.086v-.705h3.027v.705h-1.086v3.059h-.855v-3.059zm5.03 1.016l.79-1.721h.877l-1.704 3.764h-.882l.522-1.15-1.28-2.613h.876l.801 1.72zm6.149 2.689h-.855v-.645h-1.721v.645h-.855v-1.323h.339c.21-.737.274-1.71.274-2.452v-.635h2.392v3.087h.425v1.323zm-1.252-1.323v-2.409h-.737c0 .774-.059 1.672-.253 2.409h.99zm5.982.677h-.828V55.14l-1.484 2.409h-.834v-3.764h.828v2.409l1.484-2.409h.833v3.763zm3.321-3.764h1.371v3.764h-.855v-1.436h-.522l-.817 1.436h-.925l.962-1.554c-.452-.172-.726-.522-.726-1.043.001-.784.576-1.167 1.512-1.167zm-.006 1.668h.522v-1.006h-.522c-.43 0-.65.161-.65.505s.22.501.65.501zm9.086 2.096h-.828V55.14l-1.484 2.409h-.834v-3.764h.828v2.409l1.484-2.409h.833v3.763zm1.875-3.764h.855v1.43h1.446v-1.43h.855v3.764h-.855v-1.629h-1.446v1.629h-.855v-3.764zm5.816.705h-1.086v-.705h3.027v.705h-1.086v3.059h-.855v-3.059zm3.514-.705h2.516v.683h-1.661v.806h1.473v.683h-1.473v.909h1.71v.683h-2.564v-3.764zm5.589 2.479h-.473v1.285h-.855v-3.764h1.328c.946 0 1.511.414 1.511 1.242 0 .823-.564 1.237-1.511 1.237zm-.037-1.801h-.436v1.124h.436c.446 0 .683-.167.683-.559-.001-.398-.237-.565-.683-.565zm3.196-.678h.855v1.43h1.446v-1.43h.855v3.764h-.855v-1.629h-1.446v1.629h-.855v-3.764zm5.031 0h2.516v.683h-1.661v.806h1.473v.683h-1.473v.909h1.71v.683h-2.564v-3.764zm5.046.705h-1.086v-.705h3.027v.705h-1.086v3.059h-.855v-3.059zm3.412 1.495v-.629h1.581v.629h-1.581zm5.067.882l-.887-1.672v2.355h-.828v-3.764h.855l1.124 2.156 1.124-2.156h.855v3.764h-.828v-2.355l-.887 1.672h-.528zm7.505.682h-.914l-.247-.774h-1.371l-.242.774h-.914l1.312-3.764h1.064l1.312 3.764zm-2.317-1.451h.946l-.473-1.505-.473 1.505zm5.218.166h-.473v1.285h-.855v-3.764h1.328c.946 0 1.511.414 1.511 1.242 0 .823-.564 1.237-1.511 1.237zm-.037-1.801h-.436v1.124h.436c.446 0 .683-.167.683-.559-.001-.398-.237-.565-.683-.565zm4.052 1.022l1.215-1.699h.946l-1.183 1.548 1.349 2.215h-.968l-.887-1.538-.473.613v.925h-.855v-3.764h.855v1.7zm3.852-1.7h2.517v.683h-1.661v.806h1.473v.683h-1.473v.909h1.71v.683h-2.565v-3.764zm5.047.705h-1.086v-.705h3.027v.705h-1.086v3.059h-.855v-3.059zm6.659 3.059h-.828V55.14l-1.484 2.409h-.833v-3.764h.828v2.409l1.484-2.409h.833v3.763zm1.875-3.764h.855v1.43h1.446v-1.43h.855v3.764h-.855v-1.629h-1.446v1.629h-.855v-3.764zm5.031 0h2.554v.705h-1.699v3.059h-.855v-3.764zm7.191 3.764h-.914l-.247-.774h-1.371l-.242.774h-.914l1.312-3.764h1.065l1.311 3.764zm-2.318-1.451h.946l-.473-1.505-.473 1.505z" fill="#808184"/><path fill="none" d="M0 0h212.622v70.866H0z"/></svg>