<svg xmlns="http://www.w3.org/2000/svg" width="1546.061" height="294.701" viewBox="0 0 417778 79634" shape-rendering="geometricPrecision" text-rendering="geometricPrecision" image-rendering="optimizeQuality" fill-rule="evenodd" clip-rule="evenodd"><defs><style>.fil4{fill:#f18b17}.fil6{fill:#bc511f}.fil2{fill:#e95522}.fil1{fill:#e22524}.fil7{fill:#a92f2e}.fil3{fill:#737a32}.fil11{fill:#7fa629}.fil5{fill:#58333a}.fil8{fill:#717298}.fil12{fill:#585241}.fil9{fill:#5d526b}</style></defs><g id="Слой_x0020_1"><path d="M164004 37928l-6435-10354h-5806v24486h5280V36180l6819 10350h142l6890-10455v15985h5352V27574h-5806zm38342 9584c-4337 0-7415-3498-7415-7697 0-4265 3005-7693 7346-7693 4337 0 7415 3498 7415 7693 0 4266-3011 7697-7346 7697zm0-20357c-7558 0-13046 5701-13046 12660 0 7032 5421 12664 12977 12664 7552 0 13046-5704 13046-12664 0-7028-5422-12660-12977-12660zm43625 15495l-11471-15076h-4970v24486h5316V36491l11856 15569h4584V27574h-5315zm33483-2728h-4265v-7488h4163c2690 0 4369 1296 4369 3711 0 2168-1574 3777-4267 3777zm352-12348h-10003v24486h5386v-7346h4092c5489 0 9899-2938 9899-8605 0-5071-3534-8535-9374-8535zm30173 14236l3254-7939 3252 7939h-6506zm842-14410l-10493 24660h5491l2238-5495h10353l2238 5495h5633l-10496-24660h-4964zm39811 20112c-4201 0-7103-3498-7103-7697 0-4265 2973-7693 7103-7693 2796 0 4405 1011 6293 2728l3219-3707c-2275-2239-4862-3988-9481-3988-7519 0-12766 5701-12766 12660 0 7102 5355 12664 12557 12664 4722 0 7522-1471 10041-4165l-3430-3670c-1925 1749-3637 2868-6433 2868zm25754 4548h5386V27574h-5386zm28102-9935h11541v-4792h-11541v-4967h13116v-4792h-18467v24486h18641v-4795h-13290z" fill="#2b2a29" id="_851348496"/><g id="_851343248"><path class="fil1" d="M59284 58155c-592 157-1153 454-1640 890-1421 1287-1700 3363-777 4959 587 746 1161 920 1966 734 1034-241 1034-1011 1128-1599 157-998-1128-941-1514-791-777 308-1707-57-1512-787 194-730 852-890 1145-798 292 89 604 372 322 615-284 249-527 181-567 64-42-115 140-176 223-143 85 35 20-82-28-131-110-110-322-162-482-98-193 74-553 367-206 732 345 368 1068 248 1516 23 1645-821 3044-86 2029 860-1304 1213 826 2674 1891 2271 169-65 317-138 452-220 1411-1499 1459-3854 52-5406-655-727-1521-1153-2422-1275-899-94-2231 505-2475 1006-229 473 0 529 305 248 155-145 642 124 431 483-210 358-482 458-711 495-226 41-642-149-569-533 78-384 239-702 574-997 265-237 562-466 869-602z"/><path class="fil2" d="M94533 23208c-1075-9-2227-102-2646-710-602-656-602-1627 3-2209 141-148 320-241 498-309 88-34 181-54 274-61l35-6c-12-1 58-3-25-3l25 1 110 2 221 6c360 27 830 229 1160 541 700 632 1068 1689 1100 2717-251 10-503 29-755 31zm-3238 8374c-154 70-592-588-1002-1491 206-54 417-119 624-187 360 884 531 1612 378 1678zm-1571-3611c139-60 507 463 878 1225-199 72-400 137-601 197-288-763-413-1361-277-1422zm-3154 1818c-17-3-37-2-54-5-929-133-1772-636-2167-1410-198-373-315-825-305-1215 22-393 175-799 407-1110 235-312 557-518 898-506 409-2 751 80 1024 300 543 436 663 1218 649 1877-32 766-194 1484-452 2069zm5752-1409c-398 247-816 454-1244 635-425-791-1335-2382-2285-4466-3150-6888-8188-18377-8503-18239-315 137 4659 11650 7561 18648 830 1997 1364 3672 1664 4569-21 4-41 11-61 16-791 183-1578 318-2328 295 238-629 365-1350 387-2110-5-724-117-1643-864-2243-356-286-861-395-1291-395-513-25-995 290-1284 672-292 393-481 856-520 1375-19 523 107 1004 339 1473 446 898 1382 1504 2377 1729-139 206-300 382-474 515-725 554-1558 393-1934 173-411-236-391-433-400-419-131-215-410-286-627-154-214 128-284 407-156 625 0 0 278 409 899 613 584 199 1614 332 2566-400 279-232 499-532 687-862 926 115 1868-2 2781-178 52-11 105-25 160-37 788 1774 1755 3057 2177 2872 411-178 164-1653-538-3359 458-173 908-374 1345-624 1004-567 1915-1388 2575-2411 380-590 653-1253 831-1945 1795-71 3507-260 5144-276 2092-29 4094 346 5851 1029 1764 677 3271 1667 4481 2769 212 195 406 394 603 591v-2901c-1277-928-2751-1743-4404-2317-2020-701-4284-1032-6585-917-1631 67-3263 278-4873 397-11-1236-363-2560-1350-3546-512-489-1138-852-1946-941-237-20-750-44-1095 92-373 120-728 308-1007 571-570 512-932 1256-953 2034-53 765 290 1556 718 2092l136 171c123 137 162 169 250 253 159 131 326 246 494 335 336 181 673 290 999 372 654 154 1275 196 1883 215 201 5 398-7 599-7-409 1499-1454 2821-2785 3616z"/><path class="fil3" d="M55832 67187c-553 777-373 1854 398 2408 774 553 1853 375 2408-398 552-774 376-1851-399-2406-773-554-1852-377-2407 396z"/><path class="fil2" d="M64082 76980l482-896c-11-7-31-14-41-21-608-450-910-1231-589-1644 169-213 418-838 506-1481 0 0 122 1102 1058 1409l921-1713c-48 39-88 84-108 140-68-206-48-489 372-765 24-17 63-31 93-45l1585-2947c-572 87-1146 258-1660 468-1496 611-2073 2196-2148 2549-5-294-288-1488-726-2087-440-602-1236-1211-1975-1084-737 126-571 791-409 1055 135 216 434 344 658 311 101-16 282-98 151-130-128-36-287-270-135-370 151-101 496 33 613 578 119 543-500 602-928 447-426-152-1067-927-652-1966 423-1039 1887-1587 2674-1775 782-189 1406 193 1588 506 180 314-21 628-65 571 113-629-764-873-1409-538-726 375-663 1168-288 1648 379 479 1404 688 2193 281 787-405 1402-1569 387-2776-790-937-1908-958-2985-876-2516 1072-4032 3785-3488 6580 186 948 592 1797 1153 2511-241-435-389-971-496-1488-132-649-45-1168 207-1690 254-522 913-380 1153-131 236 248 468 613 398 1224-71 611-431 646-706 498-279-145-449-414-452-798-3-386 253-339 347-318 93 26 269 196 194 424-74 229 158 379 164 210 39-557-280-992-464-1013-181-26-483 65-365 880 118 819 614 2053 1244 2774 664 755 1557 1179 1687 1278 128 100-711-118-1129-326 434 241 905 410 1390 536zm2433-10357c664 795 1236 1287 2218 1699l248-461c-177-61-400-164-613-325-362-274-831-717-1009-930-186-210-502-741 530-362 577 210 1071 432 1533 795l94-171c-889-795-2011-1320-3220-1470-217 150-474 394 219 1225zm-1194-3920c-320 445-216 1062 227 1380 442 316 1058 213 1376-229 316-443 215-1059-228-1378-443-316-1058-213-1375 227z"/><path class="fil2" d="M68199 66681c-547-73 30 702 660 887 96 28 170 57 234 84l242-451c-377-300-793-478-1136-520z"/><path class="fil4" d="M74398 33733c216-195 549-176 743 42 88 101 127 225 127 346-331-110-689-156-1029-91 19-110 68-218 159-297zm-2447 3366l1225 4541c228 842 793 927 1259 187l2509-3984c464-740 365-1870-224-2518l-664-731c-17-16-42-25-59-44 149-440 83-944-249-1316-493-552-1340-601-1891-110-366 325-489 803-403 1250l-569 356c-741 459-1162 1526-934 2369z"/><path class="fil4" d="M75181 30362c-2500-2-4527-2031-4524-4532 0-2501 2029-4528 4532-4527 2503 0 4529 2032 4527 4532-3 2503-2032 4530-4535 4527zm20734-313c1175-2208 3920-3040 6126-1863 2208 1177 3043 3923 1863 6130-1177 2207-3923 3040-6128 1863-2206-1180-3042-3923-1861-6130zM85630 69974c549-210 6120-2455 6129-7390 2-5187 11-20137 11-22981 3-739-485-1521-1230-2287h2c1354 64 3012-683 4391-1486 529 726 1221 1351 2066 1800 3011 1608 6753 471 8361-2540 1607-3007 469-6752-2541-8356-3009-1607-6751-471-8359 2538-665 1247-852 2617-640 3911-947 515-2352 1140-3641 1137-739 0-2131-32-3696 14-1537-910-2996-1638-3725-2027-1134-604-2083-1816-2677-2717 801-1041 1282-2340 1282-3754 2-3410-2759-6179-6174-6181-3413 0-6179 2761-6181 6173-3 3412 2761 6180 6173 6182 959 2 1863-222 2672-613 836 1357 1948 2797 3174 3382 116 56 225 115 338 171-1215 328-2182 817-2576 1554-1338 2507-8379 15697-10824 20275-2316 4340 1517 8940 1920 9404l10528-19602c2048-3839 3659-6856 3942-7385 26-49 68-87 98-134l1177-2190v33102z"/><path class="fil1" d="M62980 64984c-320 230-693 450-1229 646-926 342-1503 241-2213 26-707-211 23-290 345-108 325 183 878 288 1427 61 481-199 464-459-212-667-850-262-1380-225-2146-47-711 169-670 405-614 574 1452 831 3329 686 4642-485z"/><path class="fil2" d="M101074 67074c2244 1112 4791 1684 7470 1538 1287-70 2522-313 3697-693v-718c-3302 758-7215 842-11167-127zm11167-20908v-6820c-1682-534-3482-780-5349-674-5574 299-10257 3618-12583 8279-736 3286 7009 6228 10232 6146-2129 258-6760-124-10172-2034 3313 3024 10835 4270 13961 4003 1418-120 2704-337 3911-609v-7677c-1312 323-2697 510-4032 480 1356-164 2757-567 4032-1094z"/><path class="fil5" d="M103706 0c-157 1012-22 2079 472 3064 1267 2521 4333 3539 6851 2276 464-232 856-540 1212-879V3045c0-767-282-1442-826-2027-29 9-53 27-84 33-835 154-3126 1369-3776 1936-224 198-567 177-764-50-198-224-173-566 51-764 567-496 2264-1463 3487-1935-377-158-788-238-1236-238h-2029c-320 195-583 377-744 519-226 197-567 176-764-48-121-136-149-310-114-471h-1736z"/><path class="fil1" d="M100671 35839c60 17 126 26 194 26 362 0 778-220 969-412 124-126 265-276 408-447 58 17 116 35 179 35 367 0 664-297 664-664 0-160-65-302-160-417 51-105 93-220 138-333 27 3 48 15 73 15 368 0 666-298 666-665 0-271-165-503-398-606 16-101 28-202 37-302 286-75 501-321 501-630 0-318-227-571-524-637-41-196-96-356-174-461-287-402-675-554-960-664-352-139-457-195-387-447 18-61-18-122-75-139-60-16-124 18-142 78-128 461 202 592 524 716 271 105 610 239 859 585 51 70 90 185 120 323-321 47-570 311-570 646 0 344 266 618 604 653-10 75-21 152-32 232-16-3-30-12-49-12-365 0-664 297-664 665 1 262 154 482 374 592-32 82-58 169-95 246-99-61-209-103-330-103-368 0-665 297-665 665 0 222 116 409 282 528-128 148-250 279-361 389-210 211-683 405-948 330-103-30-168-96-197-206-12-61-70-98-135-82-59 16-96 75-80 136 47 190 170 316 354 367z"/><path class="fil6" d="M72955 18046c91 122 287 184 433 141l724-213h2l1894-564c145-42 345 14 448 129l1220 1342 236 261 361 398c103 112 283 126 400 30l1169-954c4-2 4-3 4-3 227-187 439-361 590-481 101-85 267-414 279-561 69-728-93-1833-183-2359v-35c-28-150 39-355 146-461l440-416v-1l420-401c112-105 154-306 91-445 1 0-52-118-124-287-1-7-6-13-8-21-168-384-446-1032-578-1321-192-425-1294-1024-1294-1024-133-72-287-248-344-392l-22-50c-165-400-465-1103-774-1609-33-52-157-164-263-241l-5569 9142 302 396z"/><path class="fil2" d="M97252 64355c392 381 801 744 1234 1081 4816 1596 9635 1337 13755-243v-1786c-4844 1594-11131 2036-14989 948z"/><path class="fil7" d="M101528 78195c-262 105-652-248-868-791-217-541-180-1068 84-1171 263-107 652 248 869 789 216 543 179 1068-85 1173zm-5833-2151c-2099 840-3614 2268-3995 3590h9388c825-934 1182-1942 846-2780-629-1573-3422-1936-6239-810z"/><path class="fil6" d="M104299 72449c118-338 398-562 695-590-66 431-245 906-623 1320-120-204-162-468-72-730zm1226-386c194 210 265 540 156 861-138 398-501 625-849 576 345-401 589-887 693-1437zm-9790-6695c-49-138-54-311 83-433 49-42 97-56 147-79h3c58 84 81 159 70 229-14 100-121 204-303 283zm-287-852c-273 239-361 606-261 967-75 4-146 18-231 18-171 0-350-14-529-44-601-96-1138-349-1342-630-60-81-84-159-73-227 33-203 423-416 1085-416 171 0 347 14 527 42 317 51 614 147 856 267-9 9-23 14-32 23zm1116-192c-238-119-501-117-750-23-302-185-691-335-1137-405-194-33-391-49-580-49-793 0-1350 276-1417 699-24 160 22 323 133 478 259 361 858 653 1562 763 195 33 392 49 581 49 138 0 259-16 381-33 198 284 507 447 835 415 154-17 266-152 252-307-15-154-151-262-304-253-57 8-99-21-144-42 218-119 362-281 395-477 15-103-8-206-48-309 192 103 380 426 337 1041-138 1873 1299 5543 2845 7275 363 405 790 728 1242 967l199 613 1662 1208h2054l1660-1208 634-1952-634-1954-923-670c-169-548-433-1039-782-1362-113-106-293-98-396 16-106 113-99 291 13 396 124 112 234 253 333 414h-1959l-1662 1206-634 1954 166 513c-198-150-383-321-555-513-1568-1758-2819-5302-2706-6863 58-763-187-1357-653-1587z"/><path class="fil7" d="M104125 8615c-90 200-168 414-227 659-377 1540 2000 4236 3456 2232 1135-1561 2386 249 1525 2660-235 654-277 1671 288 2086 563 418 905-127 979-406 60-232-48-515-217-648-75-56-252-129-187-17 64 108 6 369-163 334-165-36-300-361-6-793s733-50 905 338c174 388 66 1326-907 1715-978 391-1639-830-1345-1958 144-555 6-2340-1343-1955-802 227-1863 357-2022 1827-121 1141 216 1904 1347 2591 2042 872 4433 433 6033-1117v-1077c-104 51-212 95-328 134-516 168-850-376-836-697 16-320 110-713 570-1065 225-171 445-107 594 30V8190c-203-197-419-388-656-556-2381-1682-5626-1221-7460 981z"/><path class="fil1" d="M82971 6406c231-199 518-243 635-104 7 119-63 329-254 504-225 204-421 228-585 211-117-140-25-414 204-611zm332 3109c1115 999 2531 1295 3180 644 637-635 542-2023-435-3217-925-1130-2442-1559-3296-760-1010 939-537 2354 551 3333z"/><path class="fil3" d="M50132 57645c390-545 263-1308-283-1699-549-393-1310-267-1701 281-394 547-267 1311 279 1701 549 394 1310 265 1705-283z"/><path class="fil5" d="M92957 4250l-2435 597c-510 126-655 558-323 962l1609 1958c332 404 738 328 902-168l876-2670c163-496-121-803-629-679zm18370 74471c611-610 914-1322 914-2134v-6570c-635 1074-1352 2130-2178 3148-1397 1723-3068 3335-5031 4709-504 323-997 677-1518 993-453 248-915 524-1370 767h6949c878 0 1623-304 2234-913z"/><path class="fil2" d="M92873 55616c269 2078 958 4014 1980 5720 4698 3585 12053 3335 17388 1747v-6526c-1139 269-2323 501-3562 650-6912 834-13250 429-15806-1591z"/><path class="fil7" d="M95995 3052c2607 0 4934-1189 6474-3052H89525c1538 1863 3865 3052 6470 3052z"/><path class="fil3" d="M52742 59794c190-269 640-281 998-26 357 255 491 679 301 946-193 271-641 288-1000 30-357-253-491-679-299-950zm1041 3847c1389-622 2011-2253 1392-3644-622-1390-2254-2012-3646-1390-1392 620-2012 2252-1392 3642 624 1392 2254 2014 3646 1392zm-5236-12709c-701-503-1676-339-2180 361-503 704-338 1678 361 2179 700 503 1676 341 2178-358 503-703 343-1679-359-2182z"/><path class="fil2" d="M89042 8125c211-157 606 16 883 388 194 262 270 549 229 752-244-78-559-74-815 9-63-58-124-117-180-191-275-374-332-802-117-958zm-6299-5398c72 1608 1474 2497 2743 2645 605 70 1806 219 2346 838l-173 86c-158 76-221 268-144 425l638 1300c78 157 269 223 425 144l37-17c-92 315 0 748 280 1130 44 55 94 91 139 138l-2712 1648c-300 182-539 616-533 964l72 3701c7 349 262 775 567 943l3007 1679c304 168 807 177 1117 16l3107-1615c310-162 549-578 529-927l-217-4301c-18-348-296-748-616-886l-2878-1247c63-312-26-712-292-1073-221-297-504-485-779-559l27-14c158-78 220-269 144-426l-641-1304c-76-156-267-220-424-142l-168 84c-649-880-2083-1058-2793-1142-1044-120-2192-834-2248-2114-27-555 151-1027 506-1367 362-346 874-518 1418-468 915 89 1394 491 1899 917 350 296 715 602 1224 806 1502 594 2318 553 3034 523l306-13c154-5 275-133 270-288-4-152-128-273-279-273h-6l-318 13c-691 33-1413 68-2799-482-427-171-740-435-1072-714-522-441-1118-941-2206-1046-707-67-1378 164-1857 619-470 449-711 1087-680 1799z"/><path class="fil7" d="M101084 9774c-163 176-440 184-614 18-151-139-171-357-76-528 259 61 522 100 785 94 41 141 15 300-95 416zm-2201-5531c-1150 1220-1091 3141 128 4290 227 214 483 371 751 502-182 416-106 917 244 1247 448 422 1148 399 1568-49 257-270 330-633 260-974 543-135 1054-418 1465-856 1151-1220 1093-3139-127-4288-1219-1150-3141-1091-4289 128zm4941 4759c-1397 2010-1280 4627 110 6493 244 49 577 63 688-944 120-1090 83-1829-422-2958-398-898-764-878-956-180-221 796 16 1544 325 1961 306 416 316 1438-97 492-411-942-648-1720-336-3061 186-773 428-1322 688-1803z"/><path class="fil1" d="M97824 14924c-381-275-816-344-1113-162-8-60-5-121 10-180 166 34 330 49 499 24 211-32 398-127 575-246 46 57 81 121 96 195 29 125 2 254-67 369zm-405 283c-173 35-338 2-469-77 40-24 83-46 143-46 108 0 230 41 350 112-10 2-15 9-24 11zm-472 536c-29-52-43-100-58-150 50 21 103 27 158 39-34 36-69 72-100 111zm7287 5049c97-145 161-304 213-466 152 12 313 52 466 130 13 8 21 18 35 25-57 119-100 248-115 389-12 154 5 302 47 440-117-18-238-50-356-111-159-84-280-195-374-313 26-36 64-59 84-94zm1080 5c107 148 151 295 103 391-17 25-49 40-76 61-43-105-72-216-61-336 5-43 22-77 34-116zm604-505l55 4c164 14 302 98 405 217-76 158-128 323-140 497-8 161 20 320 71 475-112 98-252 164-406 164l-53-5c-82-6-156-33-224-69 68-55 145-103 186-181 155-300 41-672-241-981 101-71 216-121 347-121zM96217 7995c-1153 176-1874 1796-1593 3622 199 1336 880 2405 1684 2817-46 152-69 310-35 467 26 121 75 229 144 327-43 283 53 611 273 918-624 1337 313 3328 2244 4599 1797 1185 3837 1347 4905 482 128 143 291 272 480 370 240 124 494 190 732 190 41 0 70-19 109-24 172 176 390 305 648 328 32 2 63 5 95 5 226 0 427-86 602-209 511 763 1707 1344 3134 1419 1018 54 1939-162 2602-541v-2968c-610-391-1443-657-2379-709-1410-74-2644 363-3240 1054-167-155-368-270-606-293-307-29-592 81-805 275-34-20-58-47-91-64-198-102-397-146-592-162 134-1278-785-2877-2425-3958-1306-859-2736-1174-3831-952 65-171 96-351 58-528-32-152-108-278-202-393 581-655 874-1814 682-3087-277-1820-1437-3157-2593-2985zM46312 41216c73 225 149 452 226 679-251-12-443-85-487-230-44-138 67-304 261-449zm1593-119c42 133-59 290-234 433-78-220-158-440-231-658 240 12 421 84 465 225zm1443 7125c114 199 230 398 350 594-300 98-549 108-626-21-78-127 45-349 276-573zm1585-569c70 115-21 306-205 508-111-185-219-370-327-555 257-70 465-65 532 47zm5324 7298c124 44 249 80 376 117-180 351-350 580-431 548-78-31-48-300 55-665zm839-1590c70 29 52 244-20 539-116-33-234-58-347-98 156-284 297-468 367-441zm2460-126c238-110 617 192 943 702-314 80-628 139-946 178-47 5-95 0-143 5-85-443-48-796 146-885zm1301 2842c-244 112-636-216-969-754 375-51 740-131 1100-232 114 492 82 890-131 986zm6770-9950c42-206 300-335 635-363-79 302-169 602-269 901-250-154-404-351-366-538zm180-8164c-45-197 112-403 367-560 63 300 121 602 173 906-281-40-501-159-540-346zm-656-6402c-137-302-277-600-420-890 237 0 448 92 540 279 95 194 33 423-120 611zm-1235 54c-89-185-36-403 105-588 129 283 254 571 380 864-212-14-398-103-485-276zm3424 14418c219 150 352 333 313 508-36 189-263 309-555 351 88-286 170-571 242-859zm380-8499c46 206-124 421-398 581-62-317-128-628-202-934 312 28 554 152 600 353zM43879 25684c2 1685 78 3592 319 5655 246 2062 626 4281 1190 6595 17 66 37 134 55 202-800 442-1293 1339-1166 2301 160 1210 1239 2066 2443 1975 257 733 538 1466 848 2198-753 543-1196 1458-1068 2444 190 1425 1497 2429 2923 2242 176-24 349-66 513-122 363 569 757 1121 1177 1665-713 767-1103 1823-956 2944 263 1997 2093 3403 4090 3139 1161-152 2109-843 2662-1781 753 196 1536 281 2317 241 1131 1544 3026 2460 5062 2193 2969-391 5054-3113 4667-6079-111-838-422-1591-854-2254 305-552 562-1128 780-1713 249 21 501 23 758-12 1883-246 3209-1973 2962-3855-207-1559-1429-2720-2911-2940-55-676-139-1339-254-1989 1028-420 1691-1485 1539-2634-178-1369-1436-2333-2805-2153-11 2-22 7-33 7-218-597-450-1170-693-1732 554-464 869-1192 768-1959-140-1077-1041-1858-2090-1896l-1982 3253c427 754 1277 1215 2188 1098 132-19 257-52 379-91 208 524 405 1060 593 1610-878 482-1423 1461-1281 2514 160 1243 1210 2142 2424 2165 90 597 156 1199 197 1809-1825 298-3099 1985-2858 3832 161 1224 954 2205 2001 2678-145 363-307 714-483 1060-1146-1086-2736-1685-4423-1463-2969 391-5055 3111-4663 6077 57 437 176 847 329 1240-406-19-806-87-1202-180 67-368 98-747 46-1135-263-1997-2094-3404-4090-3141-439 58-842 201-1211 397-400-512-777-1041-1129-1587 526-550 814-1315 708-2127-186-1428-1497-2432-2922-2242-19 2-40 9-59 14-302-712-579-1423-838-2133 685-473 1090-1294 978-2174-153-1161-1152-1992-2293-1985-619-2322-1047-4569-1329-6643-232-1816-365-3492-433-5017l-868-1405c-9 292-18 585-22 894z"/><path class="fil2" d="M94195 67543c278-300 949-127 1498 386 549 515 768 1173 490 1470-280 300-953 124-1499-386-549-515-768-1173-489-1470zm-273 8667c2880-3078 3775-6921 1999-8583-1776-1659-5550-508-8427 2570-773 826-1393 1706-1864 2584v3806c0 812 304 1524 912 2134 409 408 881 665 1409 801 1839-124 4093-1301 5971-3312z"/><path class="fil4" d="M93868 41778c23-159 409-234 861-166 454 67 801 250 776 409-23 159-409 234-862 169-453-68-800-251-775-412zm1194 1060l1390-447c330-108 636-480 679-826l222-1906c42-346-165-786-457-976l-1174-763c-293-189-798-238-1122-107l-1233 489c-325 129-632 517-682 863l-232 1555c-53 346 129 807 402 1025l1109 894c272 218 768 307 1098 199zm-9676-19626c255 0 462 209 462 464 0 256-207 463-463 463s-463-207-463-463 207-464 464-464zm-4293-2565l3574 2494c-113 151-195 331-195 535 0 503 410 912 913 912 504 0 912-409 912-912 0-502-408-911-912-911-86 0-164 26-243 49-2-6 0-10-2-16l-1547-4295c-179-494-651-619-1051-283l-1502 1268c-400 337-376 859 53 1159z"/><path class="fil7" d="M109000 31050c-31-56-66-103-88-168-30-82-36-161-52-241 145-40 285-96 403-192 186-150 289-354 346-571 174 112 345 304 449 589 33 92 45 181 58 270l-1116 313zm-658-1053c-17 66-14 141-23 211-117-47-228-113-311-213-18-23-25-49-40-73l1012-884c38 31 79 50 110 88 27 33 35 70 55 104-55 9-113 19-165 38-303 109-535 373-638 729zm879-225c-37 136-101 265-214 356-44 35-94 49-145 70 5-13 3-35 6-51 29-108 111-300 296-365 17-7 38-7 57-10zm1410 822c-19-103-23-204-61-309-177-496-551-863-951-1003-41-146-108-287-209-412-110-136-250-232-400-302l-47-1071-1215-885-1450 398-593 1381 712 1325 1097 199c41 115 91 232 171 335 163 199 385 311 623 372 14 147 37 297 88 443 38 103 95 194 148 285l-1245 1573-91 2280 1265 1896 2139 793 1629-458v-6428l-1329-492-281 80z"/><path class="fil5" d="M46717 29929c-352 220-472 738-382 1398-512 435-411 1580 260 2652 666 1071 1655 1662 2270 1392 554 370 1070 489 1422 270 76-50 119-139 174-211l-3449-5597c-107 14-207 42-295 96z"/><path class="fil8" d="M22187 55335c-240-307-232-719-19-1025 137 208 280 414 442 620 186 236 375 459 573 667-350 133-755 47-996-262zm1160-5007c-783-409-1483-494-1916-154-647 505-521 1811 208 3244-724 646-835 1748-230 2525 614 784 1727 937 2532 368 1005 840 2006 1254 2673 1065v-5423c-27-33-46-68-72-101-1034-1323-2421-1964-3195-1524z"/><path class="fil9" d="M24880 42503c-648-138-3099-318-2952 1243 90 955 971 1959 2298 2151 974 138 1808-37 2388-517v-3499c-245 477-936 791-1734 622zm-5065 6128c-901-171-1548-421-2117-700 2393 1510 5405 1246 7481-456 47-281 47-667-1121-745-1262-81-2113 0-3387 637-1017 508-977 925-161 1112 929 215 1780-96 2244-473 465-372 1643-440 573 85-1067 526-1953 835-3512 540z"/><path class="fil3" d="M38189 43938c422 150 704 611 627 1030-76 414-483 627-905 478-426-148-701-609-625-1023 76-417 480-632 903-485zm-667 3621c-422-150-700-606-628-1027 79-415 485-630 906-482 422 152 704 613 629 1025-73 419-483 632-907 484zm-1758-2872c-420-150-702-611-628-1023 78-421 483-634 908-484 423 150 701 609 625 1025-75 417-481 632-905 482zm-387 2111c-422-149-705-608-626-1025 74-416 478-632 906-480 422 150 700 607 624 1023-75 414-480 632-904 482zm-3458-2682c-440 2392 1174 5030 3609 5892 2431 858 4759-382 5197-2774 442-2392-1173-5028-3606-5892-2434-859-4760 382-5200 2774z"/><path class="fil8" d="M2095 59902c-71 37-148 53-223 60-67-252-160-493-278-725 42-36 83-68 136-96 264-127 562-61 665 149 100 209-33 483-300 612zm1042-972c-257-534-1015-700-1692-372-73 35-128 91-196 136-328-431-753-794-1249-1054v6591c878-452 1575-1244 1870-2267 131-457 162-916 122-1358 130-30 259-56 387-119 677-326 1015-1023 758-1557z"/><path class="fil3" d="M34013 38763c-2513 641-5000-602-5557-2776-556-2170 1027-4452 3540-5093 2513-639 4998 601 5557 2776 556 2169-1028 4452-3540 5093zm5224-6769c-824-3206-4412-5060-8014-4140-3603 918-5859 4264-5038 7468l180 724c822 3206 4407 5062 8012 4140 3604-920 5862-4267 5038-7471l-178-721z"/><path class="fil8" d="M10191 53001s-498-365-1271-889c-190-134-397-276-619-426s-446-319-695-471c-63-40-125-79-191-115l-98-58-87-30c-107-57-236-71-354-99-247-44-521-25-801 28-144 33-249 57-417 136-122 47-289 150-429 225-289 166-564 342-833 508-539 332-1043 643-1470 913-426 269-783 498-1030 662-247 159-389 253-389 253-24 16-55 14-72-12-13-23-5-58 20-75 0 0 139-93 382-259 243-169 590-405 1003-703 418-288 898-634 1409-1009 256-184 525-374 788-575 142-106 242-206 413-323 118-94 321-206 494-277 350-142 753-205 1118-107 181 56 350 136 487 250l105 84 77 78c52 56 107 103 159 154 208 204 429 377 628 555 201 175 390 337 566 492 698 613 1177 1006 1177 1006 22 16 24 49 4 73-20 21-53 28-74 11zm1345-1486l-324-2788c-107-934-872-2071-1699-2525l-2315-1269c-828-454-2163-426-2971 61l-2750 1664C667 47145 18 48315 33 49258l40 2865c13 941 675 2128 1471 2634l2487 1584c793 506 2092 504 2882-9l3381-2184c791-512 1351-1697 1242-2633zm-1400 7878c-67-163-274-259-577-292-175-241-382-456-628-641-26-307-116-513-278-583l-458-197c-164-70-377 10-615 201-301-49-604-49-897-9-233-196-446-281-610-215l-463 187c-164 66-260 269-293 576-241 173-458 384-642 627-304 26-511 115-581 279l-196 458c-71 162 8 377 201 616-51 300-51 602-11 896-198 235-281 443-215 609l186 464c65 166 271 259 578 292 172 241 383 457 625 642 26 305 116 513 280 583l460 197c161 70 375-9 614-201 301 47 600 49 896 9 234 199 446 281 608 216l466-185c164-68 258-274 292-578 239-177 456-386 639-627 307-28 514-117 584-280l197-462c68-161-8-372-201-613 48-300 50-602 9-894 199-236 282-447 216-611l-186-464z"/><path class="fil9" d="M24580 37115c-881-566-1850-885-2825-978 520 133 1049 421 1532 726 611 381 949 835 1171 1423 221 592-387 1004-759 999-374 2-828-87-1260-599-424-511 274-1068 558-876 559 365 904 213 418-475-519-730-2787-1329-4189-943-1395 430-2652 1339-3500 2661-685 1068-1013 2261-1013 3441 348-1547 2335-4234 4495-4632 1941-358 1815 1203 570 1456-1244 252 510-1384-1266-1011-1842 384-4061 4887-2876 7518 407 674 946 1283 1603 1781 232 94 486 173 772 227 1793 361 3855-2488 1472-4066-1859-1229 697-3359 3521-2490 772 236 2335 798 2788 126 450-672-195-1037-523-1109-269-54-592 84-736 281-60 96-134 297-9 220 122-77 425-26 393 168-35 194-401 365-915 49-514-313-141-999 347-1062 806-106 1353 23 2092 887 79 94 130 187 173 281v-1878c-494-828-1166-1570-2034-2125z"/><path class="fil8" d="M5471 73483c231-105 635 293 902 890 267 594 297 1158 68 1261-232 103-635-295-902-889-269-592-299-1159-68-1262zm-2324 6151h1146c1485-479 2628-1786 2810-3436 249-2244-1368-4264-3614-4513-1363-149-2638 396-3489 1346v3556c0 812 304 1524 914 2134 609 609 1354 913 2233 913z"/><path class="fil3" d="M35051 35535c-306 176-693 101-870-166-178-267-70-622 232-796 307-175 698-100 874 166 174 267 70 623-236 796zm-1284-1945c-308 176-696 98-872-166-177-267-71-623 233-798 305-171 695-98 871 168 177 267 71 623-232 796zm-945 3216c-304 173-696 98-869-166-179-267-73-623 231-798 308-176 695-98 872 166 178 267 70 623-234 798zm-1284-1945c-308 173-697 98-871-168-177-265-73-623 233-796 305-176 696-101 869 166 179 267 73 623-231 798zm481-3886c-2395 612-3888 2830-3345 4958 547 2128 2926 3357 5316 2746 2392-606 3887-2828 3341-4955-544-2130-2923-3357-5312-2749z"/><path d="M23454 75541l2361-3060c5 902-204 1707-610 2243-535 599-1254 779-1751 817zm-6084 2511c-239 311-988 136-1671-391-681-529-1043-1207-802-1519 238-309 988-133 1670 393 683 529 1044 1208 803 1517zm-3215-15990c-393-269-766-571-1101-918-730-767-1281-1730-1498-2783-217-1046-97-2181 428-3103 263-459 619-857 1050-1161 205-150 463-279 673-375 294-119 546-206 795-267 1047-288 2175-35 2831 749 676 752 945 1840 853 2851-41 510-177 1004-383 1459-90 217-242 472-340 620-199 283-296 377-498 594-839 871-1801 1641-2810 2334zm12158 9778l301-391V59246c-2392-1245-4599-1472-5439-384l-854 1107c-577 747-390 1966 369 3303l-734 954c-413-169-832-328-1267-459-695-210-1395-356-2069-554 676-683 1330-1406 1925-2216 1677-2219 1738-5681-397-7633-1067-964-2616-1182-3879-852-336 82-647 197-910 304-334 150-607 302-886 503-539 394-985 911-1302 1487-634 1161-744 2521-470 3738 269 1229 924 2324 1764 3174 302 306 632 571 973 817-585 372-1179 728-1771 1043-3796 2008-7724 2801-10985 2738-231-2-454-16-682-28v4770c324-30 648-54 980-96 3952-468 8378-2067 12259-4861 961-698 1895-1447 2779-2275 854 266 1702 414 2465 636 350 99 685 227 1019 352l-4887 6329c-1485-399-2712-272-3291 474l-853 1108c-1093 1413 532 4501 3628 6909h8854c120-709-125-1608-673-2572l768-992c58 2 106 11 170 11 606-23 1564-145 2375-1055 605-787 831-1945 720-3186z" fill="#7292cb"/><path class="fil8" d="M24524 77374c-482 671-673 1455-622 2221 689-87 1293-370 1796-874 610-610 916-1322 916-2134v-566c-814 170-1568 625-2090 1353z"/><path class="fil11" d="M63584 77907l68-126c-4864-3177-9349-7343-12830-12411-1875-2709-3418-5670-4626-8757-1201-3092-1974-6327-2488-9564-268-1615-453-3242-570-4862-59-1622-160-3185-109-4838 38-1645 76-3284 116-4908-51-1650-51-3300-209-4939-141-1844-398-3679-748-5492L29558 1524c-201-408-591-763-1168-1068-575-304-1067-456-1472-456H3147C2268 0 1523 304 914 915c-308 307-537 641-688 1002 2471-509 5406-918 8737-809 3701 76 7876 740 12030 2494 2072 887 4114 2060 6071 3516 1943 1472 3774 3253 5428 5325 1626 2085 3112 4444 4286 7068 1173 2624 2074 5482 2701 8483 345 1497 538 3040 737 4597 61 786 125 1573 189 2364l91 1231 81 1222c63 1610 281 3319 463 4985 268 1657 448 3331 801 4986 1327 6624 3407 13201 6531 19438 2338 4674 5428 9145 9311 12817h3161c473 0 980-168 1525-505 540-339 946-747 1215-1222z"/><path class="fil3" d="M48819 77607c0-30 3-61 8-88 35-134 156-225 300-218 665 40 2268 667 2754 985 155 106 210 307 124 454-85 152-280 190-435 89-444-290-1920-845-2421-875-177-9-324-166-330-347zm288-1179c36-136 156-227 299-218 665 37 2269 667 2754 988 154 101 210 302 124 451-85 150-279 190-433 87-448-290-1923-842-2422-875-177-7-326-162-330-344-2-31 2-61 8-89zm2189 3206h2365c86-185 164-376 219-587 469-1833-644-3844-2487-4489-1571-553-3155 70-3885 1402l1046 1947c270 475 676 883 1218 1222 543 337 1048 505 1524 505z"/><path class="fil8" d="M10406 78579c-91 285-466 421-844 307-377-115-614-438-526-726 88-283 464-421 842-304 379 114 613 440 528 723zm760-934c-924-1011-2490-1079-3500-155-617 567-880 1374-782 2144h4901c89-699-105-1430-619-1989z"/><path class="fil9" d="M1225 45970l844-857c370-372 288-871-179-1109l-1654-843c-78-40-157-52-236-65v3173c423 111 923 5 1225-299z"/><path class="fil7" d="M51000 36783c-715 1606-805 3328-375 4903 508-222 1389-983 2327-2216l-1815-2942c-42 86-94 164-137 255z"/><path class="fil8" d="M7863 71756c-76 253-287 410-478 353-187-54-282-302-207-552 71-253 286-410 471-354 191 54 285 304 214 553zm1407 1339c660-621 693-1655 73-2318-619-657-1656-690-2316-70-660 618-692 1655-73 2315 620 660 1656 693 2316 73z"/><path class="fil3" d="M35669 53867l4782 8918 3545 1656c791 370 1218-7 955-840l-2808-8809c-265-834-1196-1486-2070-1454l-2886 108c-111-1089-1036-1924-2147-1891-194 2-378 44-557 98l635 1187c436 12 797 358 810 800 1 16-7 31-7 47-92 49-168 120-252 180zM14855 6499C10784 2701 4872 1879 0 4159v1585c1991-726 4637-616 6919 1519 2784 2603 269 5569-1053 6048-1072 386-1617 46-1896-359 872 273 2241-1417 846-2754-1236-1179-2616-565-3510 223-697 610-1093 1219-1306 1799v2177c372 1051 1135 1746 1135 1746-372-203-758-379-1135-529v12894c3950 1845 8634 1690 12481-559 1487-989 3079-3920 2440-6627-824-3486-3779-3941-5587-3055-1809 887-2815 3040-2451 4376 363 1337 1723 2526 3392 1707 1482-726 2223-2650 924-3298-43-152 803-95 1130 659 328 752 177 2407-1228 3582-1408 1177-4391 3111-6854 2465-2462-646-3004-2863-2704-3848 297-984 1241-2041 2075-1090 833 953 609 1764 221 1904-392 140-604-465-490-751 115-283-280-63-444 100-362 366-536 1084-327 1623 261 654 1249 1856 2480 681 1229-1175 1203-3453 700-5063-503-1611-2291-3747-2821-4155 737 344 4413 1435 7554-463 3140-1896 6486-5094 5112-8677-220-576-474-1072-748-1520zm31814 67864c390 120 691 110 857-56l469-468c165-166 175-466 56-857 204-339 356-706 454-1100 360-189 567-410 567-644v-662c0-234-207-454-567-646-98-391-250-760-454-1098 119-388 109-690-56-857l-469-468c-166-166-467-175-857-56-336-203-707-358-1098-456-192-358-410-567-644-567h-663c-236 0-455 209-646 567-266 68-518 168-761 285l3801 7090c3-2 6-4 11-7z"/><path class="fil3" d="M17891 11467c1161 3115 828 5060 122 7452-711 2395-1247 1103-1384 478-140-621-317-2067-326-3094-6-1028 312-1929 472-2145 157-213 646-194 132 1201-512 1395 118 3497 730 2405 610-1092 956-2962 184-4807-678-1621-1553-1553-2246 726-869 2863-738 4654-118 7230 573 2389 1369 2250 1938 2055 2779-4901 2267-11223-1704-15630 776 1078 1526 2326 2200 4129z"/><path class="fil9" d="M13082 43802c0-938-763-1701-1704-1701-937 0-1700 763-1700 1701 0 939 763 1702 1700 1702 941 0 1704-763 1704-1702z"/><path class="fil7" d="M51089 42922c465 971 1153 1845 2023 2538 809-309 1570-1138 2234-2105l-2000-3246c-793 1395-1599 2364-2257 2813zm13256-180c531-1194 714-2453 599-3668-377 3015-1851 5573-3478 6931 1226-745 2250-1854 2879-3263z"/><path class="fil11" d="M19691 4618c-70-159-269-318-440-353l-1144-232c-170-35-407 43-523 174l-886 997c-115 130-167 371-113 537l380 1176c56 166 236 339 405 385l1214 332c168 45 398-27 509-160l1013-1211c112-133 144-374 74-533l-489-1112z"/><path class="fil7" d="M59130 40820c-1524 2893-3751 4881-4849 5405 141 70 269 143 413 208 365 167 743 286 1118 389 4446-40 8596-3888 8835-9208-76-258-169-508-275-749-261 2876-2972 7616-5395 8662 2156-1116 4874-6767 4437-10282-268-342-580-651-910-941l-1848 3031c-374 1098-894 2285-1526 3485z"/><path class="fil12" d="M19868 32364c-154 280-459 870-560 1292-22 86 6 304 48 372 61 96 146 234 238 384l2 2 473 765c48 75 151 104 232 59l280-152 183-103 947-520c78-44 204-37 277 14l959 684 365 259c73 55 197 57 271 8l1428-953c76-52 114-162 85-248l-520-1536c-31-84 6-196 83-245l1192-799c76-49 112-159 76-243l-150-367v-3c-110-269-237-583-325-793-34-89-214-277-292-304-421-165-1043-195-1349-200l-21-4c-93 2-168-71-168-162l-10-470c-3-89-77-158-169-149l-888 65s-9 2-11 2c-58 4-234 69-275 106-271 224-578 561-746 755l-21 24c-63 70-180 138-270 154 0 0-737 124-927 325-131 138-412 448-580 632-4 5-8 8-11 10-71 81-124 136-124 136-62 67-79 189-35 271l159 307 164 318c42 82 40 208-3 288l-7 19z"/><path class="fil8" d="M13485 51356l1279 238 1176-554 624-1145-167-1290-892-945-1280-241-1176 557-626 1142 166 1290z"/><path class="fil9" d="M12918 41656c477 0 864-386 864-864 0-475-388-861-864-861-475 0-861 386-861 861 0 478 386 864 861 864z"/><path class="fil12" d="M13823 37251c-53 236-267 396-469 353-206-46-329-278-277-519 38-169 162-276 302-321 86 52 173 56 258 37 50 33 108 52 140 110 58 99 73 221 46 340zm1092-1753c76-173 207-1217 267-1658 56-439-64-737-635-645l-1747 545c-606 217-813 583-541 1093l873 1629c-199 110-362 297-417 543-99 440 153 871 556 962 51 12 101 17 154 17 357 0 676-274 762-651 45-211 15-424-86-604-31-56-79-96-122-143l45-42c234-258 811-871 891-1046z"/><path class="fil11" d="M35764 23374l-1321 695-281 1466 971 1134 1492-52 889-1200-384-1444zM24974 6730c-217-275-673-439-1015-366l-1874 398c-341 71-735 393-873 714l-728 1684c-138 320-80 811 127 1092l1264 1710c208 279 661 478 1009 441l1937-210c347-37 760-321 920-631l907-1774c161-311 116-788-103-1062l-1571-1996zm4902 13535c-135 0-2189 227-2308 234-124 6-379-127-480-327-100-202-2265-5658-2374-5929-108-269 121-90 216 54 95 145 2005 3912 3029 4865 702 652 1655 627 1775 681 286 127 355 422 142 422zm1989-6379c-455-741-1536-1280-2399-1200l-4278 398c-865 80-1929 761-2364 1515l-2050 3552c-434 752-392 1974-88 2838l1482 4868c265 794 1102 1572 2365 1383l5355-781c1108-152 1975-581 2455-1302l2485-3712c484-722 506-1917 52-2657l-3015-4902z"/><path class="fil12" d="M10097 32324c-282 138-562 175-779 138-116-110-234-213-355-316-32-267 217-606 642-815 483-238 986-210 1120 61 135 276-148 693-628 932zm8100-7012c-1855-250-3169 1165-3604 2589-206 676-621 2012-1435 2501l-71-255c-49-169-226-267-395-218l-1717 487c-166 47-264 225-215 394l26 95c-343-170-853-157-1347 87-431 213-718 543-838 871-658-471-1415-826-2251-1028-2405-576-4815 271-6350 1999v8588c851 959 1991 1683 3333 2004 3475 833 6969-1309 7803-4785 511-2134-101-4271-1453-5800 191-30 385-84 580-180 387-192 661-478 803-772l27 84c45 168 222 266 390 218l1717-492c169-47 267-225 219-393l-70-246c1143-562 1644-2166 1886-2964 355-1160 1400-2323 2870-2118 639 88 1141 386 1454 864 316 480 400 1101 230 1702-287 1023-842 1484-1432 1970-411 342-838 693-1177 1236-991 1587-1117 2526-1230 3354l-50 354c-28 185 99 356 283 384 17 2 34 4 50 4 164 0 306-119 332-285l53-367c107-799 216-1623 1133-3088 279-449 647-754 1034-1074 612-506 1307-1082 1652-2306 219-788 106-1610-315-2253-418-637-1101-1046-1925-1161z"/></g></g></svg>