<svg class="logo__svg logo__svg_fixed" width="133" height="16" fill="none" xmlns="http://www.w3.org/2000/svg"><path d="M51.895 9.887a1.876 1.876 0 1 0 0-3.753 1.876 1.876 0 0 0 0 3.753z" fill="#A7892F"/><path d="M75.498 3.959a4.052 4.052 0 1 0 .002 8.103 4.052 4.052 0 0 0-.002-8.103zM77.59 8.01a2.094 2.094 0 0 1-2.092 2.093 2.094 2.094 0 0 1 0-4.186c1.154 0 2.092.939 2.092 2.093zM5.669 6.608c-1.69-1-2.721-1.7-2.721-2.98a1.658 1.658 0 0 1 3.257-.432l.01.051 1.897-.505-.01-.051A3.628 3.628 0 0 0 4.606 0 3.623 3.623 0 0 0 .99 3.619c0 2.494 1.959 3.649 3.69 4.66 1.69 1 2.711 1.69 2.711 2.958a2.785 2.785 0 0 1-2.783 2.784 2.79 2.79 0 0 1-2.7-2.083l-.01-.051L0 12.38l.01.052a4.74 4.74 0 0 0 4.587 3.557 4.742 4.742 0 0 0 4.741-4.743c0-2.463-1.948-3.618-3.67-4.639zM25.52.217h-1.958v15.597h1.958V.217zm-9.173 0H11.42v15.597h1.958v-5.319h2.969a5.14 5.14 0 0 0 5.132-5.134A5.13 5.13 0 0 0 16.347.217zM19.53 5.35a3.176 3.176 0 0 1-3.174 3.175h-2.968v-6.36h2.968a3.198 3.198 0 0 1 3.174 3.186zM48.803.227l-4.267 5.391L40.31.216l-.01-.02h-2.494l5.74 7.34-.02 8.268 1.958.01.02-8.278L51.298.237l-2.494-.01zM35.59 1.98c.443 0 .886.05 1.319.144l.062.01v-2l-.042-.01A8.395 8.395 0 0 0 35.59.01c-4.4 0-7.987 3.588-7.987 7.99s3.586 7.99 7.987 7.99c.444 0 .897-.042 1.34-.114l.042-.01v-2l-.062.01a6.031 6.031 0 0 1-7.35-5.886c0-3.309 2.7-6.01 6.03-6.01zm50.813 5.742c-1.69-1-2.71-1.691-2.71-2.96a2.785 2.785 0 0 1 2.782-2.783 2.79 2.79 0 0 1 2.7 2.083l.01.051 1.897-.494-.01-.052A4.74 4.74 0 0 0 86.485.01a4.742 4.742 0 0 0-4.74 4.743c0 2.474 1.947 3.628 3.679 4.639 1.69 1 2.72 1.7 2.72 2.98 0 .917-.741 1.659-1.659 1.659a1.646 1.646 0 0 1-1.597-1.227l-.01-.051-1.897.505.01.051A3.628 3.628 0 0 0 86.485 16a3.623 3.623 0 0 0 3.618-3.619c-.01-2.484-1.969-3.639-3.7-4.66zm20.85-7.505h-1.958v15.597h1.958V.217zm-9.172 0h-4.927v15.597h1.959v-5.319h2.968a5.14 5.14 0 0 0 5.133-5.134A5.136 5.136 0 0 0 98.08.217zm3.174 5.134a3.176 3.176 0 0 1-3.174 3.175h-2.968V2.165h2.968a3.192 3.192 0 0 1 3.174 3.186zM130.516.217l-4.256 5.402-4.236-5.382-.021-.02h-2.484l5.762 7.32v8.267h1.958V7.536L133 .216h-2.484zM117.324 1.98c.443 0 .886.05 1.32.144l.06.01.001-2-.041-.01a8.395 8.395 0 0 0-1.34-.114c-4.401 0-7.988 3.588-7.988 7.99s3.587 7.99 7.988 7.99c.443 0 .897-.042 1.34-.114l.04-.01.001-2-.062.01a6.031 6.031 0 0 1-7.349-5.887c0-3.309 2.7-6.01 6.03-6.01zM66.902.217v10.608L57.862.227l-.02-.01h-.279v15.587h1.959V5.196l9.06 10.608h.278V.217h-1.958z" fill="#B4932F"/></svg>